      <svg
        width="92"
        height="91"
        viewBox="0 0 51 91"
        fill="none"
        xmlns="http://www.w3.org/2000/svg"
      >
        <path
          d="M36.7432 66.2412V70.8722H25.918V68.5084H34.4017V67.6893C34.4017 66.8897 35.0555 66.2434 35.8642 66.2434H36.7432V66.2412Z"
          fill="white"
        />
        <path
          d="M14.7969 61.5659H17.1384V64.7967C17.1384 65.594 16.4824 66.2426 15.6759 66.2426H14.7991V61.5659H14.7969Z"
          fill="white"
        />
        <path
          d="M26.5007 59.3008V70.8702H12.4582C11.6671 70.8517 11.0287 70.2119 11.0287 69.4243V61.632H6.07867C5.71936 61.632 5.42818 61.9199 5.42818 62.2751V69.4254C5.42818 70.2249 4.77441 70.8713 3.9657 70.8713H3.09766V60.7478C3.09766 59.9482 3.75143 59.3019 4.56014 59.3019H13.3351V67.8654C13.3351 68.2206 13.6262 68.5085 13.9855 68.5085H23.5131C23.8724 68.5085 24.1636 68.2206 24.1636 67.8654V59.304H26.5029L26.4996 59.3008H26.5007Z"
          fill="white"
        />
        <path
          d="M47.5589 63.0278L47.5644 67.8653C47.5644 68.2194 47.2732 68.5073 46.9139 68.5073H34.2383V70.87H48.4434C49.2521 70.87 49.9059 70.2237 49.9059 69.4263L49.9004 63.0289H47.5589V63.0278Z"
          fill="white"
        />
        <path
          d="M39.6656 59.3008H49.9052V60.1698C49.9052 60.9672 49.2492 61.6157 48.4427 61.6157H38.2031V60.7467C38.2031 59.9493 38.8591 59.3008 39.6656 59.3008Z"
          fill="white"
        />
        <path
          d="M39.6667 63.0278H49.9063V65.3428H38.2031V64.4737C38.2031 63.6764 38.8591 63.0278 39.6656 63.0278H39.6678H39.6667Z"
          fill="white"
        />
        <path
          d="M16.2594 59.3008H26.499V61.632H14.7969V60.7467C14.7969 59.9493 15.4529 59.3008 16.2594 59.3008Z"
          fill="white"
        />
        <path
          d="M35.073 59.3096H36.731V60.9488C36.731 61.3214 36.4245 61.6234 36.0487 61.6234H34.3906V59.9842C34.3906 59.6116 34.6972 59.3096 35.073 59.3096Z"
          fill="white"
        />
        <path
          d="M24.8425 72.3193H26.4995V73.9575C26.4995 74.3301 26.1929 74.6321 25.8171 74.6321H24.1602V72.9939C24.1602 72.6213 24.4667 72.3193 24.8425 72.3193Z"
          fill="white"
        />
        <path
          d="M5.13655 41.5119L3.0927 40.2142C2.45269 39.8107 1.92523 39.2522 1.55936 38.5906C1.19349 37.929 1.00107 37.1858 1 36.43V10.7489C0.99882 9.80678 1.3165 8.89194 1.9015 8.15278C2.4865 7.41362 3.30449 6.8935 4.22275 6.67683C10.6659 5.15388 25.1264 1.72492 32.4973 0V5.63909C32.4979 6.52591 32.1982 7.38689 31.6469 8.08226C31.0957 8.77762 30.3252 9.26655 29.4606 9.46967C26.2262 10.2311 17.602 12.2556 12.8237 13.3745C11.8804 13.5957 11.0398 14.129 10.4386 14.8877C9.83746 15.6465 9.51109 16.5859 9.5126 17.5534V35.7777C9.51108 36.4594 9.68418 37.1301 10.0155 37.7262C10.3467 38.3223 10.8252 38.8239 11.4053 39.1834C12.3122 39.7406 12.9655 40.2049 13.4469 40.5253C11.4844 40.9896 9.58004 41.4539 7.61756 41.8927C7.20083 42.0104 6.76365 42.0373 6.3356 41.9716C5.90756 41.9059 5.49864 41.7491 5.13655 41.5119Z"
          fill="white"
        />
        <path
          d="M32.5221 25.3815C36.1773 24.4993 39.8326 23.6519 43.4901 22.7721V33.5047C43.49 34.4374 43.1752 35.3428 42.5964 36.0749C42.0175 36.807 41.2085 37.323 40.2999 37.5396C35.6704 38.6423 27.2787 40.6388 23.9839 41.4143C22.9972 41.6295 22.1136 42.1746 21.4794 42.9594C20.8451 43.7442 20.4982 44.7216 20.4961 45.73V51L48.773 44.3441C49.6932 44.1275 50.5129 43.6062 51.0986 42.8651C51.6842 42.124 52.0012 41.2067 51.9981 40.2628C51.9981 33.4048 51.9864 17.8178 51.9864 12.0278C49.5822 12.6036 47.1453 13.1886 44.7411 13.7551C42.4159 14.3123 38.8443 15.148 35.8053 15.8445C34.8714 16.063 34.0389 16.5904 33.4433 17.3411C32.8476 18.0917 32.5238 19.0215 32.5244 19.9792C32.5221 21.9711 32.5221 24.3043 32.5221 25.3815Z"
          fill="white"
        />
        <rect x="90" y="89" width="2" height="2" fill="#D9D9D9" />
      </svg>