          <svg
            width="14"
            height="14"
            viewBox="0 0 14 14"
            fill="none"
            xmlns="http://www.w3.org/2000/svg"
          >
            <path
              d="M2.93809 1.46978C2.9379 1.85939 2.78293 2.23297 2.5073 2.50834C2.23166 2.7837 1.85793 2.93829 1.46831 2.93809C1.0787 2.9379 0.705116 2.78293 0.429754 2.5073C0.154392 2.23166 -0.000194624 1.85793 1.83896e-07 1.46831C0.000194991 1.0787 0.155156 0.705116 0.430793 0.429754C0.70643 0.154392 1.08016 -0.000194624 1.46978 1.83896e-07C1.85939 0.000194991 2.23297 0.155156 2.50834 0.430793C2.7837 0.70643 2.93829 1.08016 2.93809 1.46978ZM2.98216 4.02592H0.0440715V13.2221H2.98216V4.02592ZM7.62434 4.02592H4.70094V13.2221H7.59496V8.39633C7.59496 5.70798 11.0986 5.45824 11.0986 8.39633V13.2221H14V7.39738C14 2.86537 8.81427 3.03431 7.59496 5.25992L7.62434 4.02592Z"
              fill="white"
            />
          </svg>